REM DIRINDEX 1\2\4,1\2\5,1\2\6,1\3\7,1\3\8
REM DIRNAME cjc128,folder01,folder02,folder03,folder04,folder05,folder06,folder07
TITLE ""
FILE "025_Lesson 21_Output_Stage.mp3" MP3
  TRACK 01 AUDIO
    TITLE "0:"
    INDEX 01 00:00:00
  TRACK 02 AUDIO
    TITLE "8:cjc128_3437"
    INDEX 01 00:00:09
  TRACK 03 AUDIO
    TITLE "0:"
    INDEX 01 00:03:27
  TRACK 04 AUDIO
    TITLE "8:cjc128_3438"
    INDEX 01 00:04:05
  TRACK 05 AUDIO
    TITLE "0:"
    INDEX 01 00:06:12
  TRACK 06 AUDIO
    TITLE "7:cjc128_3439"
    INDEX 01 00:06:71
  TRACK 07 AUDIO
    TITLE "0:"
    INDEX 01 00:09:38
  TRACK 08 AUDIO
    TITLE "8:cjc128_3440"
    INDEX 01 00:12:61
  TRACK 09 AUDIO
    TITLE "0:"
    INDEX 01 00:14:68
  TRACK 10 AUDIO
    TITLE "7:cjc128_3441"
    INDEX 01 00:15:60
  TRACK 11 AUDIO
    TITLE "0:"
    INDEX 01 00:19:30
  TRACK 12 AUDIO
    TITLE "8:cjc128_3442"
    INDEX 01 00:23:53
  TRACK 13 AUDIO
    TITLE "0:"
    INDEX 01 00:25:46
  TRACK 14 AUDIO
    TITLE "7:cjc128_3443"
    INDEX 01 00:26:34
  TRACK 15 AUDIO
    TITLE "0:"
    INDEX 01 00:29:50
  TRACK 16 AUDIO
    TITLE "8:cjc128_3444"
    INDEX 01 00:33:50
  TRACK 17 AUDIO
    TITLE "0:"
    INDEX 01 00:35:51
  TRACK 18 AUDIO
    TITLE "7:cjc128_3445"
    INDEX 01 00:36:35
  TRACK 19 AUDIO
    TITLE "0:"
    INDEX 01 00:39:56
  TRACK 20 AUDIO
    TITLE "8:cjc128_3446"
    INDEX 01 00:43:46
  TRACK 21 AUDIO
    TITLE "0:"
    INDEX 01 00:45:02
  TRACK 22 AUDIO
    TITLE "7:cjc128_3447"
    INDEX 01 00:45:53
  TRACK 23 AUDIO
    TITLE "0:"
    INDEX 01 00:48:36
  TRACK 24 AUDIO
    TITLE "8:cjc128_3448"
    INDEX 01 00:51:44
  TRACK 25 AUDIO
    TITLE "0:"
    INDEX 01 00:53:35
  TRACK 26 AUDIO
    TITLE "7:cjc128_3449"
    INDEX 01 00:54:25
  TRACK 27 AUDIO
    TITLE "0:"
    INDEX 01 00:57:29
  TRACK 28 AUDIO
    TITLE "8:cjc128_3450"
    INDEX 01 01:00:72
  TRACK 29 AUDIO
    TITLE "0:"
    INDEX 01 01:02:59
  TRACK 30 AUDIO
    TITLE "7:cjc128_3451"
    INDEX 01 01:03:47
  TRACK 31 AUDIO
    TITLE "0:"
    INDEX 01 01:06:71
  TRACK 32 AUDIO
    TITLE "8:cjc128_3452"
    INDEX 01 01:10:63
  TRACK 33 AUDIO
    TITLE "0:"
    INDEX 01 01:12:56
  TRACK 34 AUDIO
    TITLE "7:cjc128_3453"
    INDEX 01 01:13:51
  TRACK 35 AUDIO
    TITLE "0:"
    INDEX 01 01:16:71
  TRACK 36 AUDIO
    TITLE "8:cjc128_3454"
    INDEX 01 01:21:08
  TRACK 37 AUDIO
    TITLE "0:"
    INDEX 01 01:22:68
  TRACK 38 AUDIO
    TITLE "7:cjc128_3455"
    INDEX 01 01:23:60
  TRACK 39 AUDIO
    TITLE "0:"
    INDEX 01 01:27:12
  TRACK 40 AUDIO
    TITLE "8:cjc128_3456"
    INDEX 01 01:31:26
  TRACK 41 AUDIO
    TITLE "0:"
    INDEX 01 01:33:17
  TRACK 42 AUDIO
    TITLE "7:cjc128_3457"
    INDEX 01 01:34:01
  TRACK 43 AUDIO
    TITLE "0:"
    INDEX 01 01:37:32
  TRACK 44 AUDIO
    TITLE "8:cjc128_3458"
    INDEX 01 01:41:40
  TRACK 45 AUDIO
    TITLE "0:"
    INDEX 01 01:43:21
  TRACK 46 AUDIO
    TITLE "7:cjc128_3459"
    INDEX 01 01:44:03
  TRACK 47 AUDIO
    TITLE "0:"
    INDEX 01 01:48:24
  TRACK 48 AUDIO
    TITLE "8:cjc128_3460"
    INDEX 01 01:53:12
  TRACK 49 AUDIO
    TITLE "0:"
    INDEX 01 01:54:74
  TRACK 50 AUDIO
    TITLE "7:cjc128_3461"
    INDEX 01 01:55:65
  TRACK 51 AUDIO
    TITLE "0:"
    INDEX 01 01:58:60
  TRACK 52 AUDIO
    TITLE "8:cjc128_3462"
    INDEX 01 02:02:32
  TRACK 53 AUDIO
    TITLE "0:"
    INDEX 01 02:04:10
  TRACK 54 AUDIO
    TITLE "7:cjc128_3463"
    INDEX 01 02:04:70
  TRACK 55 AUDIO
    TITLE "0:"
    INDEX 01 02:08:23
  TRACK 56 AUDIO
    TITLE "8:cjc128_3464"
    INDEX 01 02:12:25
  TRACK 57 AUDIO
    TITLE "0:"
    INDEX 01 02:14:08
  TRACK 58 AUDIO
    TITLE "7:cjc128_3465"
    INDEX 01 02:15:00
  TRACK 59 AUDIO
    TITLE "0:"
    INDEX 01 02:17:47
  TRACK 60 AUDIO
    TITLE "8:cjc128_3466"
    INDEX 01 02:20:60
  TRACK 61 AUDIO
    TITLE "0:"
    INDEX 01 02:22:29
  TRACK 62 AUDIO
    TITLE "7:cjc128_3467"
    INDEX 01 02:23:21
  TRACK 63 AUDIO
    TITLE "0:"
    INDEX 01 02:26:68
  TRACK 64 AUDIO
    TITLE "8:cjc128_3468"
    INDEX 01 02:31:18
  TRACK 65 AUDIO
    TITLE "0:"
    INDEX 01 02:32:71
  TRACK 66 AUDIO
    TITLE "7:cjc128_3469"
    INDEX 01 02:33:60
  TRACK 67 AUDIO
    TITLE "0:"
    INDEX 01 02:36:51
  TRACK 68 AUDIO
    TITLE "8:cjc128_3470"
    INDEX 01 02:40:23
  TRACK 69 AUDIO
    TITLE "0:"
    INDEX 01 02:42:02
  TRACK 70 AUDIO
    TITLE "7:cjc128_3471"
    INDEX 01 02:42:71
  TRACK 71 AUDIO
    TITLE "0:"
    INDEX 01 02:45:71
  TRACK 72 AUDIO
    TITLE "8:cjc128_3472"
    INDEX 01 02:49:36
  TRACK 73 AUDIO
    TITLE "0:"
    INDEX 01 02:51:33
  TRACK 74 AUDIO
    TITLE "7:cjc128_3473"
    INDEX 01 02:52:20
  TRACK 75 AUDIO
    TITLE "0:"
    INDEX 01 02:56:14
  TRACK 76 AUDIO
    TITLE "8:cjc128_3474"
    INDEX 01 03:00:65
  TRACK 77 AUDIO
    TITLE "0:"
    INDEX 01 03:02:62
  TRACK 78 AUDIO
    TITLE "7:cjc128_3475"
    INDEX 01 03:03:46
  TRACK 79 AUDIO
    TITLE "0:"
    INDEX 01 03:06:71
  TRACK 80 AUDIO
    TITLE "8:cjc128_3476"
    INDEX 01 03:10:69
  TRACK 81 AUDIO
    TITLE "0:"
    INDEX 01 03:12:68
  TRACK 82 AUDIO
    TITLE "7:cjc128_3477"
    INDEX 01 03:13:54
  TRACK 83 AUDIO
    TITLE "0:"
    INDEX 01 03:16:68
  TRACK 84 AUDIO
    TITLE "8:cjc128_3478"
    INDEX 01 03:20:52
  TRACK 85 AUDIO
    TITLE "0:"
    INDEX 01 03:22:51
  TRACK 86 AUDIO
    TITLE "7:cjc128_3479"
    INDEX 01 03:23:39
  TRACK 87 AUDIO
    TITLE "0:"
    INDEX 01 03:26:53
  TRACK 88 AUDIO
    TITLE "8:cjc128_3480"
    INDEX 01 03:30:21
  TRACK 89 AUDIO
    TITLE "0:"
    INDEX 01 03:32:30
  TRACK 90 AUDIO
    TITLE "7:cjc128_3481"
    INDEX 01 03:33:15
  TRACK 91 AUDIO
    TITLE "0:"
    INDEX 01 03:36:29
